<?xml version="1.0" encoding="UTF-8"?>
<svg width="48px" height="48px" viewBox="0 0 48 48" version="1.1" xmlns="http://www.w3.org/2000/svg" xmlns:xlink="http://www.w3.org/1999/xlink">
    <!-- Generator: Sketch 55.2 (78181) - https://sketchapp.com -->
    <title>circle arrow</title>
    <desc>Created with Sketch.</desc>
    <g id="circle-arrow" stroke="none" stroke-width="1" fill="none" fill-rule="evenodd">
        <g id="Group-7">
            <circle id="Oval" stroke-opacity="0.87" stroke="#000000" stroke-width="3" cx="24" cy="24" r="22.5"></circle>
            <path d="M37.3806963,22.4891733 L28.7457545,13.6132366 C27.9501975,12.7955878 26.6238761,12.7955878 25.828319,13.6132366 C25.032762,14.4308854 25.032762,15.7940374 25.828319,16.6116862 L30.9264038,21.8831462 L12.0631666,21.8831462 C10.9141597,21.8831462 10,22.8226911 10,24.0036048 C10,25.1845184 10.9141597,26.1240633 12.0631666,26.1240633 L30.9264038,26.1240633 L25.8271401,31.3649282 C25.031583,32.182577 25.031583,33.5457289 25.8271401,34.3633778 C26.2393018,34.7869848 26.7700662,35 27.3008305,35 C27.8315949,35 28.3623592,34.7881904 28.774521,34.3633778 L37.3805784,25.5183392 C37.7639737,25.1242974 38,24.5787943 38,24.0037259 C38,23.4286576 37.7939132,22.8831545 37.3805784,22.4891127 L37.3806963,22.4891733 Z" id="Fill-1" fill="#000000"></path>
        </g>
    </g>
</svg>